<?xml version="1.0" standalone="no"?>
<!DOCTYPE svg PUBLIC "-//W3C//DTD SVG 1.1//EN" "http://www.w3.org/Graphics/SVG/1.1/DTD/svg11.dtd">
<svg xmlns="http://www.w3.org/2000/svg">
<defs >
<font id="SchibstedGrotesk" horiz-adv-x="1192" ><font-face
    font-family="Schibsted Grotesk"
    units-per-em="2048"
    panose-1="0 0 0 0 0 0 0 0 0 0"
    ascent="2000"
    descent="-528"
    alphabetic="0" />
<glyph unicode=" " horiz-adv-x="520" />
<glyph unicode="!" horiz-adv-x="492" d="M187 396L153 1440H339L305 396Q276 396 246 396T187 396ZM246 -24Q183 -24 139 20T94 128Q94 191 138 235T246 280Q309 280 353 236T398 128Q398 64 354 20T246 -24Z" />
<glyph unicode="&quot;" horiz-adv-x="723" d="M107 903V1440H301L246 903H107ZM422 903V1440H616L561 903H422Z" />
<glyph unicode="#" horiz-adv-x="1340" d="M696 0L956 1440H1108L848 0H696ZM66 430V570H1200V430H66ZM228 0L488 1440H641L381 0H228ZM135 862V1002H1275V862H135Z" />
<glyph unicode="$" horiz-adv-x="1155" d="M604 35Q451 35 338 86T154 234T61 468L259 509Q265 346 353 259T600 172Q695 172 761 203T863 291T899 425Q899 526 841 577T677 651L505 689Q460 699 398 718T276 774T175 877T135 1044Q135 1172 200 1251T371 1367T596
1404Q732 1404 830 1361T989 1237T1071 1045L876 1004Q869 1086 836 1144T742 1235T586 1267Q512 1267 447 1245T341 1176T301 1054Q301 972 358 926T539 851L713 811Q806 790 889 748T1023 629T1075 429Q1075 305 1019 217T857 82T604 35ZM530 -140V1580H650V-140H530Z"
/>
<glyph unicode="%" horiz-adv-x="1741" d="M381 561Q224 561 139 678T53 1008Q53 1220 138 1337T381 1455Q538 1455 623 1338T709 1008Q709 795 624 678T381 561ZM381 675Q559 675 559 1008Q559 1341 381 1341Q203 1341 203 1008Q203 675 381 675ZM402 -37L304
33L1336 1473L1434 1403L402 -37ZM1360 -15Q1203 -15 1118 102T1032 432Q1032 644 1117 761T1360 879Q1517 879 1602 762T1688 432Q1688 219 1603 102T1360 -15ZM1360 99Q1538 99 1538 432Q1538 765 1360 765Q1182 765 1182 432Q1182 99 1360 99Z" />
<glyph unicode="&amp;" horiz-adv-x="1404" d="M579 -24Q419 -24 305 28T131 174T70 389Q70 517 141 620T360 790L542 873Q680 936 739 1000T798 1138Q798 1217 743 1269T601 1321Q505 1321 445 1265T385 1126Q385 1089 401 1054T455 974T557 859L1165 190Q1190
163 1207 153T1246 143H1344V0H1189Q1131 0 1101 22T1039 81L429 771Q345 866 298 928T232 1038T213 1134Q213 1227 263 1302T400 1420T600 1464Q706 1464 789 1422T919 1307T967 1138Q967 1035 898 951T655 780L464 685Q361 634 306 561T250 395Q250 277 339 203T585
128Q726 128 822 187T975 342T1058 553T1084 779V804H1252V778Q1252 613 1213 468T1092 213T883 39T579 -24Z" />
<glyph unicode="&apos;" horiz-adv-x="408" d="M107 903V1440H301L246 903H107Z" />
<glyph unicode="(" horiz-adv-x="632" d="M407 -338Q252 -140 172 93T92 580Q92 832 172 1066T407 1500H585Q413 1271 333 1052T252 580Q252 324 330 105T585 -338H407Z" />
<glyph unicode=")" horiz-adv-x="632" d="M47 -338Q224 -114 302 105T380 580Q380 832 300 1051T47 1500H225Q379 1300 459 1066T540 580Q540 327 460 94T225 -338H47Z" />
<glyph unicode="*" horiz-adv-x="907" d="M293 730L177 814L358 1036L73 1112L117 1250L399 1141L382 1440H525L508 1141L790 1250L834 1112L550 1036L731 814L615 730L454 976L293 730Z" />
<glyph unicode="+" horiz-adv-x="1300" d="M572 170V602H140V758H572V1190H728V758H1160V602H728V170H572Z" />
<glyph unicode="," horiz-adv-x="543" d="M167 -319L107 -233L140 -209Q196 -168 223 -128T250 -35V12L274 -24Q212 -24 169 18T125 124Q125 189 169 232T275 276Q311 276 347 258T408 199T433 86Q433 -8 381 -106T220 -281L167 -319Z" />
<glyph unicode="-" horiz-adv-x="999" d="M164 552V708H835V552H164Z" />
<glyph unicode="." horiz-adv-x="574" d="M287 -24Q223 -24 179 20T135 128Q135 192 179 236T287 280Q351 280 395 236T439 128Q439 64 395 20T287 -24Z" />
<glyph unicode="/" horiz-adv-x="910" d="M47 -261L698 1587H863L212 -261H47Z" />
<glyph unicode="0" horiz-adv-x="1252" d="M626 -24Q376 -24 238 171T100 720Q100 1073 238 1268T626 1464Q877 1464 1014 1269T1152 720Q1152 367 1015 172T626 -24ZM626 120Q792 120 877 273T962 720Q962 1014 877 1167T626 1320Q460 1320 375 1167T290 720Q290
426 375 273T626 120Z" />
<glyph unicode="1" horiz-adv-x="703" d="M363 0V1147Q284 1079 215 1033T61 954V1124Q105 1145 154 1176T265 1269T410 1440H539V0H363Z" />
<glyph unicode="2" horiz-adv-x="1172" d="M70 0V118L576 547Q679 635 744 707T841 853T872 1018Q872 1117 838 1184T738 1286T579 1320Q471 1320 405 1278T306 1163T267 1001L75 1060Q81 1156 144 1249T319 1403T578 1464Q662 1464 747 1440T903 1364T1018 1227T1062
1022Q1062 851 969 717T709 447L318 130L191 154H1090V0H70Z" />
<glyph unicode="3" horiz-adv-x="1179" d="M593 -24Q459 -24 346 28T159 179T73 423L255 480Q266 319 353 220T590 120Q725 120 814 198T904 425Q904 483 880 548T792 660T613 706H415V858H597Q724 858 791 925T859 1078Q859 1178 789 1249T591 1320Q433 1320
360 1230T275 980L93 1037Q99 1140 162 1238T336 1400T597 1464Q720 1464 820 1416T980 1285T1039 1092Q1039 1020 1009 960T919 856T767 792Q919 765 1006 664T1094 429Q1094 309 1052 223T937 83T776 2T593 -24Z" />
<glyph unicode="4" horiz-adv-x="1197" d="M794 0V476H796V1328L840 1232L202 474L142 526H1138V372H62V544L821 1440H970V0H794Z" />
<glyph unicode="5" horiz-adv-x="1188" d="M602 -24Q477 -24 363 27T173 178T83 422L265 479Q276 327 357 224T596 120Q693 120 766 166T882 295T924 483Q924 644 832 730T602 816Q481 816 413 756T312 620L138 638L196 1440H1020V1286H345L307 742L258 746Q312
838 408 901T642 964Q774 964 879 904T1045 737T1106 489Q1106 333 1036 218T851 39T602 -24Z" />
<glyph unicode="6" horiz-adv-x="1218" d="M632 -24Q370 -24 235 168T99 691Q99 853 132 993T232 1239T402 1404T642 1464Q784 1464 888 1406T1053 1259T1123 1080L940 1033Q934 1162 857 1241T645 1320Q544 1320 477 1276T370 1160T309 1003T282 833T275 682L259
698Q301 796 398 872T653 948Q779 948 885 892T1056 727T1120 462Q1120 314 1059 205T888 36T632 -24ZM632 120Q779 120 859 212T940 465Q940 626 860 715T638 804Q492 804 403 712T313 459Q313 303 399 212T632 120Z" />
<glyph unicode="7" horiz-adv-x="1087" d="M250 0Q329 372 480 683T854 1286H54V1440H1032V1305Q930 1152 840 998T675 685T546 355T462 0H250Z" />
<glyph unicode="8" horiz-adv-x="1186" d="M592 -24Q444 -24 330 30T151 183T86 409Q86 546 168 654T408 792Q325 812 263 855T168 960T134 1100Q134 1205 192 1287T354 1417T593 1464Q729 1464 831 1417T992 1288T1050 1100Q1050 1023 1017 961T922 855T778 792Q936
763 1018 655T1100 409Q1100 281 1035 183T856 31T592 -24ZM593 134Q742 134 828 211T914 422Q914 553 828 631T593 710Q445 710 358 632T270 422Q270 287 357 211T593 134ZM593 858Q722 858 796 917T870 1081Q870 1190 796 1254T593 1319Q464 1319 389 1255T314
1081Q314 976 389 917T593 858Z" />
<glyph unicode="9" horiz-adv-x="1216" d="M588 -24Q441 -24 337 34T174 181T105 359L288 407Q294 276 367 198T589 120Q687 120 751 164T852 280T908 437T932 607T939 758L955 730Q913 633 816 557T563 480Q436 480 330 538T159 707T94 972Q94 1123 157 1233T334
1404T594 1464Q741 1464 841 1407T1001 1248T1088 1014T1115 733Q1115 584 1087 448T996 206T833 38T588 -24ZM585 624Q731 624 820 720T909 982Q909 1139 826 1229T596 1320Q448 1320 365 1227T282 970Q282 810 362 717T585 624Z" />
<glyph unicode=":" horiz-adv-x="574" d="M287 -24Q223 -24 179 20T135 128Q135 192 179 236T287 280Q351 280 395 236T439 128Q439 64 395 20T287 -24ZM287 800Q223 800 179 844T135 952Q135 1016 179 1060T287 1104Q351 1104 395 1060T439 952Q439 888 395 844T287
800Z" />
<glyph unicode=";" horiz-adv-x="549" d="M167 -319L107 -233L140 -209Q196 -168 223 -128T250 -35V12L274 -24Q212 -24 169 18T125 124Q125 189 169 232T275 276Q311 276 347 258T408 199T433 86Q433 -8 381 -106T220 -281L167 -319ZM287 800Q223 800 179 844T135
952Q135 1016 179 1060T287 1104Q351 1104 395 1060T439 952Q439 888 395 844T287 800Z" />
<glyph unicode="&lt;" horiz-adv-x="1300" d="M1148 155L128 607V759L1148 1205V1035L343 683L1148 326V155Z" />
<glyph unicode="=" horiz-adv-x="1300" d="M140 805V961H1160V805H140ZM140 398V554H1160V398H140Z" />
<glyph unicode="&gt;" horiz-adv-x="1300" d="M152 155V326L957 683L152 1035V1205L1172 759V607L152 155Z" />
<glyph unicode="?" horiz-adv-x="1084" d="M486 396L484 499Q483 581 506 634T569 724T652 790T735 853T799 935T824 1059Q824 1184 750 1250T547 1316Q445 1316 382 1275T287 1159T247 979L55 1038Q59 1114 96 1189T200 1327T355 1426T552 1464Q635 1464 717
1439T866 1362T973 1231T1014 1045Q1014 935 974 866T875 752T755 673T653 599T609 499L605 396Q575 396 546 396T486 396ZM545 -24Q482 -24 438 20T393 128Q393 191 437 235T545 280Q608 280 652 236T697 128Q697 64 653 20T545 -24Z" />
<glyph unicode="@" horiz-adv-x="1812" d="M938 -214Q677 -214 486 -114T190 169T86 600Q86 852 192 1041T487 1335T925 1440Q1156 1440 1338 1349T1626 1087T1732 678Q1732 531 1694 438T1596 293T1471 219T1349 192T1261 187H1177Q1119 187 1085 217T1050 302Q1050
315 1053 330L1060 364L1079 350Q1025 253 951 211T796 169Q660 169 586 262T511 498Q511 577 535 666T608 835T732 965T910 1015Q1005 1015 1077 967T1169 832L1158 817L1197 997H1344L1206 350Q1203 335 1203 329Q1203 309 1233 309H1336Q1350 309 1388 315T1468
353T1541 456T1572 661Q1572 878 1483 1019T1246 1230T926 1300Q719 1300 567 1209T330 959T246 594Q246 387 331 238T573 7T940 -74H1563V-214H938ZM849 297Q921 297 972 335T1055 433T1102 558T1117 675Q1117 780 1067 833T942 887Q874 887 825 849T745 750T698
624T683 501Q683 398 728 348T849 297Z" />
<glyph unicode="A" horiz-adv-x="1434" d="M20 0L628 1440H808L1414 0H1222L718 1252L212 0H20ZM332 472V620H1102V472H332Z" />
<glyph unicode="B" horiz-adv-x="1320" d="M164 0V1440H713Q924 1440 1051 1354T1178 1100Q1178 998 1133 931T1018 827T869 781L872 785Q1030 759 1131 661T1233 387Q1233 244 1167 159T990 37T749 0H164ZM344 148H749Q866 148 932 188T1024 292T1051 423Q1051
520 1006 583T879 677T685 708H344V148ZM344 856H704Q822 856 906 906T990 1076Q990 1171 926 1231T714 1292H344V856Z" />
<glyph unicode="C" horiz-adv-x="1440" d="M771 -24Q567 -24 414 72T175 337T90 727Q90 941 171 1107T405 1368T769 1464Q984 1464 1145 1353T1359 1015L1168 970Q1125 1148 1019 1232T766 1316Q614 1316 507 1239T342 1028T285 721Q285 545 343 410T508 200T758
124Q915 124 1029 219T1174 483L1371 429Q1312 207 1150 92T771 -24Z" />
<glyph unicode="D" horiz-adv-x="1427" d="M164 0V1440H599Q853 1440 1015 1354T1256 1109T1334 730Q1334 482 1242 320T982 79T586 0H164ZM344 148H568Q1139 148 1139 720Q1139 895 1083 1023T904 1222T581 1292H344V148Z" />
<glyph unicode="E" horiz-adv-x="1199" d="M164 0V1440H1113V1292H344V840H1017V692H344V148H1127V0H164Z" />
<glyph unicode="F" horiz-adv-x="1148" d="M164 0V1440H1087V1292H344V848H1013V700H344V0H164Z" />
<glyph unicode="G" horiz-adv-x="1470" d="M805 -24Q568 -24 410 71T171 335T91 718Q91 938 171 1106T404 1369T769 1464Q914 1464 1035 1416T1242 1269T1361 1022L1165 977Q1131 1153 1024 1234T768 1316Q617 1316 509 1240T344 1028T286 709Q286 548 336 415T498
203T790 124Q901 124 1007 158T1191 289V636L1242 584H707V736H1359V232Q1282 122 1184 67T986 -6T805 -24Z" />
<glyph unicode="H" horiz-adv-x="1474" d="M164 0V1440H344V818H1130V1440H1310V0H1130V670H344V0H164Z" />
<glyph unicode="I" horiz-adv-x="724" d="M81 0V140H272V1300H81V1440H643V1300H452V140H643V0H81Z" />
<glyph unicode="J" horiz-adv-x="1098" d="M520 -24Q387 -24 290 20T133 149T54 350L245 406Q261 267 324 196T523 124Q646 124 708 189T771 407V1292H246V1440H951V407Q951 302 923 222T839 87T704 4T520 -24Z" />
<glyph unicode="K" horiz-adv-x="1351" d="M164 0V1440H344V772L1045 1440H1290L738 913L1302 0H1084L600 781L344 537V0H164Z" />
<glyph unicode="L" horiz-adv-x="1117" d="M164 0V1440H344V148H1064V0H164Z" />
<glyph unicode="M" horiz-adv-x="1778" d="M124 0L204 1440H500L908 130H868L1278 1440H1574L1654 0H1480L1410 1304H1413L990 0H790L365 1304H368L298 0H124Z" />
<glyph unicode="N" horiz-adv-x="1492" d="M164 0V1440H414L1185 153L1154 147V1440H1328V0H1098L307 1294L338 1301V0H164Z" />
<glyph unicode="O" horiz-adv-x="1576" d="M788 -24Q573 -24 417 66T176 324T91 720Q91 950 175 1116T416 1373T788 1464Q1003 1464 1159 1374T1400 1117T1485 720Q1485 491 1401 324T1160 67T788 -24ZM788 124Q943 124 1055 196T1229 403T1290 720Q1290 904 1229
1037T1056 1243T788 1316Q634 1316 521 1244T347 1038T286 720Q286 537 347 403T521 197T788 124Z" />
<glyph unicode="P" horiz-adv-x="1259" d="M164 0V1440H683Q934 1440 1060 1337T1186 1039Q1186 848 1061 743T680 638H344V0H164ZM344 786H683Q839 786 920 853T1002 1036Q1002 1140 929 1216T683 1292H344V786Z" />
<glyph unicode="Q" horiz-adv-x="1576" d="M864 -300Q800 -300 752 -258T704 -150V60H872V-101Q872 -134 881 -145T922 -156H1087V-300H864ZM788 -24Q573 -24 417 66T176 324T91 720Q91 950 175 1116T416 1373T788 1464Q1003 1464 1159 1374T1400 1117T1485 720Q1485
491 1401 324T1160 67T788 -24ZM788 124Q943 124 1055 196T1229 403T1290 720Q1290 904 1229 1037T1056 1243T788 1316Q634 1316 521 1244T347 1038T286 720Q286 537 347 403T521 197T788 124Z" />
<glyph unicode="R" horiz-adv-x="1296" d="M164 0V1440H713Q1213 1440 1213 1061Q1213 679 710 679H344V0H164ZM1009 0L627 729H831L1213 0H1009ZM344 827H713Q865 827 947 886T1029 1058Q1029 1171 947 1231T713 1292H344V827Z" />
<glyph unicode="S" horiz-adv-x="1255" d="M654 -24Q488 -24 365 31T165 192T64 447L278 491Q285 314 381 219T649 124Q753 124 825 158T936 254T975 400Q975 512 911 566T734 646L546 688Q494 700 426 721T293 783T187 894T144 1073Q144 1212 215 1298T401 1424T645
1464Q794 1464 900 1417T1072 1282T1161 1074L950 1030Q942 1122 905 1185T801 1282T634 1316Q553 1316 483 1292T368 1217T324 1084Q324 998 383 947T582 863L772 819Q873 796 963 750T1109 622T1165 404Q1165 269 1104 173T928 27T654 -24Z" />
<glyph unicode="T" horiz-adv-x="1318" d="M568 0V1292H53V1440H1265V1292H748V0H568Z" />
<glyph unicode="U" horiz-adv-x="1378" d="M689 -24Q521 -24 398 39T208 219T140 494V1440H320V510Q320 332 419 228T689 124Q859 124 958 228T1058 510V1440H1238V494Q1238 336 1171 220T981 40T689 -24Z" />
<glyph unicode="V" horiz-adv-x="1389" d="M598 0L50 1440H242L716 124H678L1148 1440H1340L792 0H598Z" />
<glyph unicode="W" horiz-adv-x="1914" d="M362 0L62 1440H236L496 136H493L858 1440H1058L1421 136H1418L1678 1440H1852L1552 0H1286L936 1310H976L628 0H362Z" />
<glyph unicode="X" horiz-adv-x="1336" d="M48 0L560 746L74 1440H284L669 861L1056 1440H1256L770 742L1288 0H1066L662 605L254 0H48Z" />
<glyph unicode="Y" horiz-adv-x="1276" d="M547 0V596L44 1440H234L666 708H612L1042 1440H1232L727 596V0H547Z" />
<glyph unicode="Z" horiz-adv-x="1219" d="M60 0V118L925 1286H132V1440H1147V1320L283 154H1146V0H60Z" />
<glyph unicode="[" horiz-adv-x="635" d="M164 -338V1500H572V1360H316V-198H572V-338H164Z" />
<glyph unicode="\" horiz-adv-x="910" d="M698 -261L47 1587H212L863 -261H698Z" />
<glyph unicode="]" horiz-adv-x="635" d="M471 -338H63V-198H319V1360H63V1500H471V-338Z" />
<glyph unicode="^" horiz-adv-x="1300" d="M136 816L570 1443H732L1166 816H982L651 1304L320 816H136Z" />
<glyph unicode="_" horiz-adv-x="1024" d="M120 -156V0H904V-156H120Z" />
<glyph unicode="`" horiz-adv-x="1024" d="M562 1213L342 1517L494 1607L676 1280L562 1213Z" />
<glyph unicode="a" horiz-adv-x="1129" d="M440 -24Q332 -24 253 17T130 131T87 294Q87 391 144 473T320 604T627 654H807L789 636V695Q789 825 737 894T563 964Q448 964 386 905T320 745L131 788Q140 875 197 946T351 1061T575 1104Q706 1104 788 1055T910 912T949
688V195Q949 162 958 151T999 140H1060V0H953Q885 0 839 42T793 150V226H818Q802 184 772 141T696 60T587 -1T440 -24ZM478 116Q561 116 632 157T746 285T790 513V522H621Q488 522 412 487T303 401T271 298Q271 247 294 206T363 141T478 116Z" />
<glyph unicode="b" horiz-adv-x="1207" d="M679 -24Q573 -24 469 29T312 208L321 216V0H163V1500H331V855L316 871Q360 989 462 1046T679 1104Q811 1104 911 1035T1067 839T1123 539Q1123 366 1067 240T910 45T679 -24ZM633 116Q767 116 853 226T939 543Q939 743
856 853T635 964Q551 964 481 920T368 783T326 543Q326 326 416 221T633 116Z" />
<glyph unicode="c" horiz-adv-x="1129" d="M594 -24Q442 -24 331 45T160 240T100 540Q100 713 160 839T331 1035T594 1104Q710 1104 801 1062T956 940T1050 748L879 703Q851 829 779 896T594 964Q445 964 365 854T284 540Q284 336 364 226T594 116Q705 116 777
181T878 371L1048 323Q1024 241 982 177T883 68T753 0T594 -24Z" />
<glyph unicode="d" horiz-adv-x="1207" d="M528 -24Q397 -24 297 45T140 241T84 541Q84 714 140 840T297 1035T528 1104Q634 1104 738 1051T895 872L876 864V1500H1044V0H886V225L891 209Q847 91 745 34T528 -24ZM572 116Q657 116 727 160T839 297T881 537Q881
755 791 859T574 964Q440 964 354 854T268 537Q268 337 351 227T572 116Z" />
<glyph unicode="e" horiz-adv-x="1174" d="M601 -24Q447 -24 335 45T161 240T100 539Q100 712 161 839T333 1035T594 1104Q680 1104 766 1077T924 982T1039 797T1083 500H208V636H937L889 573Q884 715 843 801T737 925T591 964Q496 964 427 915T321 770T284 538Q284
336 366 226T601 116Q710 116 784 171T894 330L1059 274Q1020 180 955 114T801 12T601 -24Z" />
<glyph unicode="f" horiz-adv-x="698" d="M218 0V1276Q218 1397 275 1448T466 1500H601V1360H442Q412 1360 399 1347T386 1304V0H218ZM57 940V1080H628V940H57Z" />
<glyph unicode="g" horiz-adv-x="1137" d="M543 -414Q302 -414 188 -347T74 -138Q74 -58 115 5T257 102Q219 125 195 163T171 248Q171 304 206 348T306 412Q226 459 182 539T137 727Q137 843 188 927T335 1058T563 1104Q695 1104 791 1058T940 927T993 725Q993
610 941 527T791 398T560 352H467Q341 352 341 277Q341 206 463 206H679Q807 206 885 177T1005 101T1062 0T1077 -103Q1077 -262 962 -338T605 -414H543ZM543 -280H605Q903 -280 903 -102Q903 -28 850 19T667 66H481Q381 66 314 26T247 -107Q247 -195 319 -237T543
-280ZM563 470Q690 470 758 535T826 725Q826 848 758 916T563 984Q437 984 370 917T303 725Q303 601 370 536T563 470ZM741 991V1098Q741 1163 789 1205T901 1248H1031V1108H924Q893 1108 884 1097T874 1053V991H741Z" />
<glyph unicode="h" horiz-adv-x="1162" d="M164 0V1500H332V826L315 870Q357 971 450 1037T679 1104Q793 1104 875 1053T1003 908T1048 680V0H880V667Q880 804 829 884T646 964Q506 964 419 865T332 565V0H164Z" />
<glyph unicode="i" horiz-adv-x="496" d="M164 0V1080H332V0H164ZM248 1261Q190 1261 149 1302T108 1401Q108 1460 149 1500T248 1541Q307 1541 347 1501T388 1401Q388 1343 348 1302T248 1261Z" />
<glyph unicode="j" horiz-adv-x="557" d="M52 -390V-250H178Q210 -250 219 -239T228 -195V1080H396V-240Q396 -305 348 -347T236 -390H52ZM312 1261Q254 1261 213 1302T172 1401Q172 1460 213 1500T312 1541Q371 1541 411 1501T452 1401Q452 1343 412 1302T312 1261Z" />
<glyph unicode="k" horiz-adv-x="1130" d="M164 0V1500H332V597L839 1080H1068L622 670L1077 0H878L500 558L332 403V0H164Z" />
<glyph unicode="l" horiz-adv-x="536" d="M321 0Q257 0 209 42T161 150V1500H329V195Q329 162 338 151T379 140H484V0H321Z" />
<glyph unicode="m" horiz-adv-x="1787" d="M163 0V1080H321V895Q359 979 447 1041T656 1104Q763 1104 842 1046T961 880Q1012 979 1100 1041T1307 1104Q1462 1104 1552 992T1643 680V0H1475V667Q1475 759 1456 825T1394 928T1275 964Q1193 964 1128 918T1025 782T987
565V0H819V667Q819 759 800 825T738 928T621 964Q539 964 473 918T369 783T331 565V0H163Z" />
<glyph unicode="n" horiz-adv-x="1190" d="M163 0V1080H321V836L314 880Q357 973 450 1038T676 1104Q791 1104 874 1053T1002 908T1047 680V0H879V667Q879 800 825 882T645 964Q510 964 421 862T331 565V0H163Z" />
<glyph unicode="o" horiz-adv-x="1222" d="M611 -24Q459 -24 343 47T162 246T97 540Q97 707 162 834T343 1032T611 1104Q763 1104 879 1033T1060 834T1125 540Q1125 373 1060 246T879 48T611 -24ZM611 116Q764 116 852 230T941 540Q941 737 853 850T611 964Q458
964 370 851T281 540Q281 344 369 230T611 116Z" />
<glyph unicode="p" horiz-adv-x="1208" d="M163 -390V1080H321V855L316 871Q360 989 462 1046T679 1104Q811 1104 911 1035T1067 839T1123 539Q1123 366 1067 240T910 45T679 -24Q573 -24 469 29T312 208L327 216V-390H163ZM633 116Q767 116 853 226T939 543Q939
743 856 853T635 964Q551 964 481 920T368 783T326 543Q326 326 416 221T633 116Z" />
<glyph unicode="q" horiz-adv-x="1208" d="M877 -390V225L892 209Q848 91 746 34T529 -24Q398 -24 298 45T141 241T85 541Q85 714 141 840T298 1035T529 1104Q635 1104 739 1051T896 872L887 864V1080H1045V-390H877ZM573 116Q658 116 728 160T840 297T882 537Q882
755 792 859T575 964Q441 964 355 854T269 537Q269 337 352 227T573 116Z" />
<glyph unicode="r" horiz-adv-x="822" d="M163 0V1080H321V851L315 877Q363 989 459 1046T655 1104Q684 1104 711 1099T763 1082L741 924Q686 941 632 941Q598 941 548 928T448 874T365 753T331 540V0H163Z" />
<glyph unicode="s" horiz-adv-x="1050" d="M532 -24Q415 -24 320 14T161 131T77 331L253 365Q264 238 339 176T529 114Q642 114 709 171T776 310Q776 380 729 421T591 479L460 504Q407 514 350 532T244 582T164 666T133 797Q133 903 188 970T335 1071T533 1104Q649
1104 735 1068T875 965T947 803L762 766Q755 827 730 872T656 941T530 966Q437 966 370 927T303 809Q303 765 325 734T393 683T508 647L641 619Q725 602 796 569T910 476T953 320Q953 213 900 136T752 17T532 -24Z" />
<glyph unicode="t" horiz-adv-x="696" d="M394 0Q330 0 282 42T234 150V940H60V1080H234V1306L402 1342V1080H616V940H402V195Q402 162 411 151T452 140H617V0H394Z" />
<glyph unicode="u" horiz-adv-x="1190" d="M512 -24Q399 -24 316 27T188 173T143 400V1080H311V413Q311 281 361 199T541 116Q638 116 709 166T819 316T859 566V1080H1027V0H869V254L876 210Q834 110 741 43T512 -24Z" />
<glyph unicode="v" horiz-adv-x="1134" d="M461 0L55 1080H241L584 95H552L893 1080H1079L675 0H461Z" />
<glyph unicode="w" horiz-adv-x="1662" d="M362 0L62 1080H240L497 82H466L722 1080H938L1199 74H1163L1422 1080H1600L1300 0H1064L816 966H846L598 0H362Z" />
<glyph unicode="x" horiz-adv-x="1144" d="M50 0L468 560L88 1080H282L575 669L862 1080H1068L670 560L1092 0H876L566 433L250 0H50Z" />
<glyph unicode="y" horiz-adv-x="1122" d="M211 -390V-250H375Q393 -250 403 -239T422 -202L500 21L483 -56L49 1080H237L581 85L544 94L887 1080H1073L558 -269Q537 -324 487 -357T383 -390H211Z" />
<glyph unicode="z" horiz-adv-x="1033" d="M80 0V144L728 936H106V1080H930V936L272 144H954V0H80Z" />
<glyph unicode="{" horiz-adv-x="670" d="M359 -338Q295 -338 247 -296T199 -188V461Q199 510 157 510H53V652H157Q199 652 199 701V1350Q199 1415 247 1457T359 1500H607V1360H401Q370 1360 361 1349T351 1305V731Q351 680 322 643T233 581Q292 557 321 520T351
431V-143Q351 -176 360 -187T401 -198H607V-338H359Z" />
<glyph unicode="|" horiz-adv-x="490" d="M164 1440H326V-363H164V1440Z" />
<glyph unicode="}" horiz-adv-x="670" d="M311 -338H63V-198H269Q301 -198 310 -187T319 -143V431Q319 482 348 519T437 581Q378 605 349 642T319 731V1305Q319 1338 310 1349T269 1360H63V1500H311Q375 1500 423 1458T471 1350V701Q471 652 513 652H617V510H513Q471
510 471 461V-188Q471 -253 423 -295T311 -338Z" />
<glyph unicode="~" horiz-adv-x="1300" d="M140 532Q163 677 250 755T477 834Q549 834 595 812T675 761T742 710T823 688Q905 688 944 720T1001 834H1160Q1137 689 1050 611T823 532Q751 532 705 554T625 605T558 656T477 678Q395 678 356 647T299 532H140Z" />
<glyph unicode="&#xa0;" horiz-adv-x="520" />
<glyph unicode="&#xa1;" horiz-adv-x="492" d="M187 684Q216 684 246 684T305 684L339 -360H153L187 684ZM246 1104Q309 1104 353 1060T398 952Q398 889 354 845T246 800Q183 800 139 844T94 952Q94 1016 138 1060T246 1104Z" />
<glyph unicode="&#xa2;" horiz-adv-x="1027" d="M538 222Q398 222 296 285T139 465T83 741Q83 900 138 1016T296 1196T538 1260Q644 1260 728 1221T871 1108T958 932L800 890Q775 1006 708 1068T538 1130Q401 1130 327 1029T253 741Q253 554 327 453T538 351Q639
351 705 411T799 586L956 541Q934 466 896 407T804 306T683 244T538 222ZM458 0V1440H578V0H458Z" />
<glyph unicode="&#xa3;" horiz-adv-x="1230" d="M75 0V160Q115 169 170 193T278 259T366 362T401 507Q401 551 389 601T349 709L322 765Q287 838 270 908T253 1042Q253 1164 307 1259T461 1409T692 1464Q875 1464 1000 1352T1166 1017L986 974Q957 1151 892 1237T699
1324Q568 1324 509 1247T450 1054Q450 987 468 913T518 765L553 685Q567 654 577 612T587 519Q587 433 542 339T368 174L260 114L221 154H1103V0H75ZM76 673V793H960V673H76Z" />
<glyph unicode="&#xa4;" horiz-adv-x="1300" d="M650 170Q544 170 452 209T289 319T180 481T140 680Q140 786 179 878T289 1041T451 1150T650 1190Q756 1190 848 1151T1011 1041T1120 879T1160 680Q1160 574 1121 482T1011 319T849 210T650 170ZM178 84L53 208L285
442L410 318L178 84ZM650 316Q751 316 833 365T965 497T1014 680Q1014 781 965 863T834 995T650 1044Q550 1044 467 995T335 864T286 680Q286 580 335 497T467 365T650 316ZM1121 84L913 293L1038 417L1246 208L1121 84ZM282 928L53 1158L178 1282L407 1052L282
928ZM1015 926L890 1050L1121 1282L1246 1158L1015 926Z" />
<glyph unicode="&#xa5;" horiz-adv-x="1276" d="M547 0V596L44 1440H234L666 708H612L1042 1440H1232L727 596V0H547ZM204 301V421H1071V301H204ZM204 582V702H1071V582H204Z" />
<glyph unicode="&#xa6;" horiz-adv-x="448" d="M143 -363V335H305V-363H143ZM143 744V1440H305V744H143Z" />
<glyph unicode="&#xa7;" horiz-adv-x="1241" d="M626 -414Q478 -414 361 -369T168 -232T64 0L251 36Q265 -120 370 -195T623 -270Q775 -270 868 -200T962 -27Q962 61 895 110T717 178L538 208Q468 220 398 241T269 301T175 400T139 548Q139 662 207 740T392 858L379
816Q279 853 209 921T139 1110Q139 1233 210 1310T394 1423T632 1459Q778 1459 882 1417T1050 1298T1137 1111L935 1073Q926 1153 889 1206T786 1287T623 1315Q540 1315 468 1294T352 1230T308 1122Q308 1044 370 999T573 926L753 891Q856 871 944 834T1087 729T1142
547Q1142 444 1093 363T949 228L963 259Q1043 220 1092 154T1142 -17Q1142 -140 1077 -229T896 -366T626 -414ZM778 324Q860 345 911 412T962 548Q962 622 897 672T707 743L521 774Q476 768 427 741T342 668T307 557Q307 505 334 468T421 405T575 361L778 324Z"
/>
<glyph unicode="&#xa8;" horiz-adv-x="1024" d="M294 1261Q236 1261 195 1302T154 1401Q154 1460 195 1500T294 1541Q353 1541 393 1501T434 1401Q434 1343 394 1302T294 1261ZM730 1261Q672 1261 631 1302T590 1401Q590 1460 631 1500T730 1541Q789 1541 829
1501T870 1401Q870 1343 830 1302T730 1261Z" />
<glyph unicode="&#xa9;" horiz-adv-x="1713" d="M864 347Q705 347 610 450T515 722Q515 887 608 990T864 1093Q987 1093 1069 1031T1177 858L1038 826Q1005 978 863 978Q766 978 713 907T659 720Q659 602 713 532T860 461Q928 461 974 500T1037 611L1180 580Q1151
468 1066 408T864 347ZM857 -23Q628 -23 455 70T184 331T87 720Q87 941 184 1108T454 1369T857 1463Q1086 1463 1259 1370T1529 1109T1626 720Q1626 499 1529 332T1259 71T857 -23ZM857 104Q1041 104 1180 182T1398 398T1476 720Q1476 903 1398 1042T1181 1258T857
1336Q673 1336 534 1259T316 1042T237 720Q237 537 315 399T533 182T857 104Z" />
<glyph unicode="&#xaa;" horiz-adv-x="941" d="M338 658Q263 658 206 685T116 763T83 882Q83 955 125 1012T254 1102T469 1135H588L575 1120V1162Q575 1248 542 1292T432 1336Q359 1336 320 1298T275 1194L115 1226Q123 1288 164 1338T275 1419T441 1449Q536 1449
598 1416T690 1315T721 1145V831Q721 809 727 801T756 793H795V675H711Q652 675 616 709T580 799V846L604 841Q594 812 574 780T523 721T446 676T338 658ZM82 428V553H799V428H82ZM376 772Q458 772 517 832T576 1022V1032H469Q383 1032 334 1010T264 954T243 888Q243
858 257 832T300 789T376 772Z" />
<glyph unicode="&#xab;" horiz-adv-x="985" d="M375 225L61 629L375 1035H559L241 629L559 225H375ZM740 225L426 629L740 1035H924L606 629L924 225H740Z" />
<glyph unicode="&#xac;" horiz-adv-x="1300" d="M964 170V602H100V758H1120V170H964Z" />
<glyph unicode="&#xae;" horiz-adv-x="1713" d="M581 360V1080H902Q1157 1080 1157 877Q1157 674 888 674H717V360H581ZM1012 360L810 711H961L1165 360H1012ZM717 780H895Q1021 780 1021 876Q1021 973 893 973H717V780ZM857 -23Q628 -23 455 70T184 331T87 720Q87
941 184 1108T454 1369T857 1463Q1086 1463 1259 1370T1529 1109T1626 720Q1626 499 1529 332T1259 71T857 -23ZM857 104Q1041 104 1180 182T1398 398T1476 720Q1476 903 1398 1042T1181 1258T857 1336Q673 1336 534 1259T316 1042T237 720Q237 537 315 399T533
182T857 104Z" />
<glyph unicode="&#xaf;" horiz-adv-x="1024" d="M185 1347V1473H839V1347H185Z" />
<glyph unicode="&#xb0;" horiz-adv-x="888" d="M444 785Q345 785 270 827T153 944T110 1120Q110 1219 152 1294T270 1411T444 1453Q543 1453 618 1411T736 1294T778 1118Q778 1019 736 944T619 827T444 785ZM444 925Q526 925 577 978T628 1120Q628 1206 577 1259T444
1313Q362 1313 311 1260T260 1120Q260 1032 311 979T444 925Z" />
<glyph unicode="&#xb1;" horiz-adv-x="1300" d="M572 450V742H140V898H572V1190H728V898H1160V742H728V450H572ZM140 170V326H1160V170H140Z" />
<glyph unicode="&#xb2;" horiz-adv-x="757" d="M62 720V810L367 1064Q449 1132 488 1188T528 1322Q528 1405 487 1445T374 1485Q317 1485 282 1462T229 1400T207 1309L58 1352Q64 1413 104 1469T214 1562T374 1599Q444 1599 514 1573T631 1488T679 1332Q679 1232
621 1150T453 985L227 815L169 838H688V720H62Z" />
<glyph unicode="&#xb3;" horiz-adv-x="763" d="M383 705Q297 705 225 737T108 830T56 978L199 1021Q204 927 251 873T380 819Q451 819 499 860T548 979Q548 1012 534 1047T483 1106T380 1131H283V1239H381Q449 1239 485 1275T522 1358Q522 1410 486 1447T380 1485Q297
1485 259 1439T214 1309L73 1349Q77 1410 116 1467T225 1562T388 1599Q465 1599 528 1572T628 1493T666 1373Q666 1331 649 1293T596 1229T500 1191Q594 1175 646 1115T698 975Q698 881 652 821T534 733T383 705Z" />
<glyph unicode="&#xb4;" horiz-adv-x="1024" d="M462 1213L348 1280L530 1607L682 1517L462 1213Z" />
<glyph unicode="&#xb5;" horiz-adv-x="1227" d="M164 -390V1080H332V416Q332 398 336 350T364 248T440 155T589 116Q640 116 691 132T785 188T854 300T880 484V1080H1048V196Q1048 162 1057 151T1097 140H1159V0H1039Q997 0 953 25T885 105T880 250L929 234Q866
103 787 40T594 -24Q512 -24 448 6T344 93T289 232L332 250V-390H164Z" />
<glyph unicode="&#xb6;" horiz-adv-x="1341" d="M707 -390V638H571Q316 638 191 743T65 1039Q65 1234 191 1337T568 1440H867V-390H707ZM1017 -390V1440H1177V-390H1017Z" />
<glyph unicode="&#xb7;" horiz-adv-x="574" d="M287 498Q223 498 179 542T135 650Q135 714 179 758T287 802Q351 802 395 758T439 650Q439 586 395 542T287 498Z" />
<glyph unicode="&#xb8;" horiz-adv-x="1024" d="M503 -414Q452 -414 392 -401T283 -353L322 -251Q350 -268 387 -283T479 -299Q513 -299 550 -287T587 -235Q587 -199 545 -179T399 -155V-98L455 42H577V20L525 -102L490 -68Q615 -78 668 -127T721 -245Q721 -311
672 -362T503 -414Z" />
<glyph unicode="&#xb9;" horiz-adv-x="497" d="M243 720V1375Q197 1332 154 1302T54 1252V1393Q98 1412 152 1449T279 1584H385V720H243Z" />
<glyph unicode="&#xba;" horiz-adv-x="916" d="M461 658Q352 658 269 708T139 847T92 1053Q92 1170 139 1259T269 1398T461 1448Q570 1448 653 1398T784 1259T831 1053Q831 936 784 847T654 708T461 658ZM98 428V553H815V428H98ZM461 776Q558 776 614 850T670
1053Q670 1181 614 1255T461 1330Q364 1330 309 1256T253 1053Q253 925 308 851T461 776Z" />
<glyph unicode="&#xbb;" horiz-adv-x="985" d="M61 225L379 629L61 1035H245L559 629L245 225H61ZM426 225L744 629L426 1035H610L924 629L610 225H426Z" />
<glyph unicode="&#xbc;" horiz-adv-x="1534" d="M243 576V1231Q197 1188 154 1158T54 1108V1249Q98 1268 152 1305T279 1440H385V576H243ZM267 -37L169 33L1201 1473L1299 1403L267 -37ZM1235 0V277L1241 286V771L1276 729L908 284L875 329H1482V210H803V333L1247
864H1377V0H1235Z" />
<glyph unicode="&#xbd;" horiz-adv-x="1631" d="M243 576V1231Q197 1188 154 1158T54 1108V1249Q98 1268 152 1305T279 1440H385V576H243ZM267 -37L169 33L1201 1473L1299 1403L267 -37ZM936 0V90L1241 344Q1323 412 1362 468T1402 602Q1402 685 1361 725T1248
765Q1191 765 1156 742T1103 680T1081 589L932 632Q938 693 978 749T1088 842T1248 879Q1318 879 1388 853T1505 768T1553 612Q1553 512 1495 430T1327 265L1101 95L1043 118H1562V0H936Z" />
<glyph unicode="&#xbe;" horiz-adv-x="1732" d="M383 561Q297 561 225 593T108 686T56 834L199 877Q204 783 251 729T380 675Q451 675 499 716T548 835Q548 868 534 903T483 962T380 987H283V1095H381Q449 1095 485 1131T522 1214Q522 1266 486 1303T380 1341Q297
1341 259 1295T214 1165L73 1205Q77 1266 116 1323T225 1418T388 1455Q465 1455 528 1428T628 1349T666 1229Q666 1187 649 1149T596 1085T500 1047Q594 1031 646 971T698 831Q698 737 652 677T534 589T383 561ZM465 -37L367 33L1399 1473L1497 1403L465 -37ZM1433
0V277L1439 286V771L1474 729L1106 284L1073 329H1680V210H1001V333L1445 864H1575V0H1433Z" />
<glyph unicode="&#xbf;" horiz-adv-x="1084" d="M598 684L600 581Q602 499 578 446T515 356T432 290T349 227T285 145T260 21Q260 -103 334 -169T537 -236Q639 -236 702 -195T798 -78T837 101L1029 42Q1025 -34 988 -109T884 -247T729 -346T532 -384Q449 -384
367 -359T218 -282T111 -151T70 35Q70 145 110 214T209 328T329 407T431 481T475 581L479 684Q509 684 538 684T598 684ZM539 1104Q602 1104 646 1060T691 952Q691 889 647 845T539 800Q476 800 432 844T387 952Q387 1016 431 1060T539 1104Z" />
<glyph unicode="&#xc0;" horiz-adv-x="1434" d="M20 0L628 1440H808L1414 0H1222L718 1252L212 0H20ZM332 472V620H1102V472H332ZM670 1556L450 1860L602 1950L784 1623L670 1556Z" />
<glyph unicode="&#xc1;" horiz-adv-x="1434" d="M20 0L628 1440H808L1414 0H1222L718 1252L212 0H20ZM332 472V620H1102V472H332ZM774 1555L660 1622L842 1949L994 1859L774 1555Z" />
<glyph unicode="&#xc2;" horiz-adv-x="1434" d="M20 0L628 1440H808L1414 0H1222L718 1252L212 0H20ZM332 472V620H1102V472H332ZM545 1593L408 1660L612 1947H822L1026 1660L889 1593L717 1846L545 1593Z" />
<glyph unicode="&#xc3;" horiz-adv-x="1434" d="M20 0L628 1440H808L1414 0H1222L718 1252L212 0H20ZM332 472V620H1102V472H332ZM850 1636Q793 1636 757 1656T695 1703T645 1750T588 1770Q543 1770 520 1736T478 1641L354 1686Q371 1796 431 1852T590 1909Q650
1909 686 1889T748 1841T795 1794T848 1773Q890 1773 913 1803T956 1885L1080 1838Q1060 1738 1001 1687T850 1636Z" />
<glyph unicode="&#xc4;" horiz-adv-x="1434" d="M20 0L628 1440H808L1414 0H1222L718 1252L212 0H20ZM332 472V620H1102V472H332ZM499 1621Q441 1621 400 1662T359 1761Q359 1820 400 1860T499 1901Q558 1901 598 1861T639 1761Q639 1703 599 1662T499 1621ZM935
1621Q877 1621 836 1662T795 1761Q795 1820 836 1860T935 1901Q994 1901 1034 1861T1075 1761Q1075 1703 1035 1662T935 1621Z" />
<glyph unicode="&#xc5;" horiz-adv-x="1434" d="M20 0L628 1440H808L1414 0H1222L718 1252L212 0H20ZM332 472V620H1102V472H332ZM717 1525Q614 1525 550 1587T485 1750Q485 1850 549 1911T717 1973Q821 1973 884 1912T948 1750Q948 1650 885 1588T717 1525ZM717
1636Q768 1636 797 1666T826 1750Q826 1803 797 1832T717 1862Q666 1862 637 1832T607 1749Q607 1696 636 1666T717 1636Z" />
<glyph unicode="&#xc6;" horiz-adv-x="1908" d="M46 0L755 1440H1822V1292H1025L1115 840H1726V692H1144L1252 148H1836V0H1100L1014 472H467L243 0H46ZM538 620H988L849 1380L895 1374L538 620Z" />
<glyph unicode="&#xc7;" horiz-adv-x="1440" d="M771 -24Q567 -24 414 72T175 337T90 727Q90 941 171 1107T405 1368T769 1464Q984 1464 1145 1353T1359 1015L1168 970Q1125 1148 1019 1232T766 1316Q614 1316 507 1239T342 1028T285 721Q285 545 343 410T508
200T758 124Q915 124 1029 219T1174 483L1371 429Q1312 207 1150 92T771 -24ZM761 -414Q711 -414 651 -401T542 -353L581 -251Q609 -268 646 -283T739 -299Q772 -299 809 -287T846 -235Q846 -199 804 -179T655 -155V-118L679 42H815L816 20L799 -102L749 -65Q888
-84 934 -133T980 -245Q980 -311 930 -362T761 -414Z" />
<glyph unicode="&#xc8;" horiz-adv-x="1199" d="M164 0V1440H1113V1292H344V840H1017V692H344V148H1127V0H164ZM620 1556L400 1860L552 1950L734 1623L620 1556Z" />
<glyph unicode="&#xc9;" horiz-adv-x="1199" d="M164 0V1440H1113V1292H344V840H1017V692H344V148H1127V0H164ZM724 1555L610 1622L792 1949L944 1859L724 1555Z" />
<glyph unicode="&#xca;" horiz-adv-x="1199" d="M164 0V1440H1113V1292H344V840H1017V692H344V148H1127V0H164ZM495 1593L358 1660L562 1947H772L976 1660L839 1593L667 1846L495 1593Z" />
<glyph unicode="&#xcb;" horiz-adv-x="1199" d="M164 0V1440H1113V1292H344V840H1017V692H344V148H1127V0H164ZM449 1621Q391 1621 350 1662T309 1761Q309 1820 350 1860T449 1901Q508 1901 548 1861T589 1761Q589 1703 549 1662T449 1621ZM885 1621Q827 1621
786 1662T745 1761Q745 1820 786 1860T885 1901Q944 1901 984 1861T1025 1761Q1025 1703 985 1662T885 1621Z" />
<glyph unicode="&#xcc;" horiz-adv-x="724" d="M81 0V140H272V1300H81V1440H643V1300H452V140H643V0H81ZM315 1556L95 1860L247 1950L429 1623L315 1556Z" />
<glyph unicode="&#xcd;" horiz-adv-x="724" d="M81 0V140H272V1300H81V1440H643V1300H452V140H643V0H81ZM675 1555L561 1622L743 1949L895 1859L675 1555Z" />
<glyph unicode="&#xce;" horiz-adv-x="724" d="M81 0V140H272V1300H81V1440H643V1300H452V140H643V0H81ZM190 1593L53 1660L257 1947H467L671 1660L534 1593L362 1846L190 1593Z" />
<glyph unicode="&#xcf;" horiz-adv-x="724" d="M81 0V140H272V1300H81V1440H643V1300H452V140H643V0H81ZM144 1621Q86 1621 45 1662T4 1761Q4 1820 45 1860T144 1901Q203 1901 243 1861T284 1761Q284 1703 244 1662T144 1621ZM580 1621Q522 1621 481 1662T440
1761Q440 1820 481 1860T580 1901Q639 1901 679 1861T720 1761Q720 1703 680 1662T580 1621Z" />
<glyph unicode="&#xd0;" horiz-adv-x="1427" d="M164 0V1440H599Q853 1440 1015 1354T1256 1109T1334 730Q1334 482 1242 320T982 79T586 0H164ZM344 148H568Q1139 148 1139 720Q1139 895 1083 1023T904 1222T581 1292H344V148ZM-6 646V794H694V646H-6Z" />
<glyph unicode="&#xd1;" horiz-adv-x="1492" d="M164 0V1440H414L1185 153L1154 147V1440H1328V0H1098L307 1294L338 1301V0H164ZM879 1636Q822 1636 786 1656T724 1703T674 1750T617 1770Q572 1770 549 1736T507 1641L383 1686Q400 1796 460 1852T619 1909Q679
1909 715 1889T777 1841T824 1794T877 1773Q919 1773 942 1803T985 1885L1109 1838Q1089 1738 1030 1687T879 1636Z" />
<glyph unicode="&#xd2;" horiz-adv-x="1576" d="M788 -24Q573 -24 417 66T176 324T91 720Q91 950 175 1116T416 1373T788 1464Q1003 1464 1159 1374T1400 1117T1485 720Q1485 491 1401 324T1160 67T788 -24ZM788 124Q943 124 1055 196T1229 403T1290 720Q1290
904 1229 1037T1056 1243T788 1316Q634 1316 521 1244T347 1038T286 720Q286 537 347 403T521 197T788 124ZM741 1556L521 1860L673 1950L855 1623L741 1556Z" />
<glyph unicode="&#xd3;" horiz-adv-x="1576" d="M788 -24Q573 -24 417 66T176 324T91 720Q91 950 175 1116T416 1373T788 1464Q1003 1464 1159 1374T1400 1117T1485 720Q1485 491 1401 324T1160 67T788 -24ZM788 124Q943 124 1055 196T1229 403T1290 720Q1290
904 1229 1037T1056 1243T788 1316Q634 1316 521 1244T347 1038T286 720Q286 537 347 403T521 197T788 124ZM845 1555L731 1622L913 1949L1065 1859L845 1555Z" />
<glyph unicode="&#xd4;" horiz-adv-x="1576" d="M788 -24Q573 -24 417 66T176 324T91 720Q91 950 175 1116T416 1373T788 1464Q1003 1464 1159 1374T1400 1117T1485 720Q1485 491 1401 324T1160 67T788 -24ZM788 124Q943 124 1055 196T1229 403T1290 720Q1290
904 1229 1037T1056 1243T788 1316Q634 1316 521 1244T347 1038T286 720Q286 537 347 403T521 197T788 124ZM616 1593L479 1660L683 1947H893L1097 1660L960 1593L788 1846L616 1593Z" />
<glyph unicode="&#xd5;" horiz-adv-x="1576" d="M788 -24Q573 -24 417 66T176 324T91 720Q91 950 175 1116T416 1373T788 1464Q1003 1464 1159 1374T1400 1117T1485 720Q1485 491 1401 324T1160 67T788 -24ZM788 124Q943 124 1055 196T1229 403T1290 720Q1290
904 1229 1037T1056 1243T788 1316Q634 1316 521 1244T347 1038T286 720Q286 537 347 403T521 197T788 124ZM921 1636Q864 1636 828 1656T766 1703T716 1750T659 1770Q614 1770 591 1736T549 1641L425 1686Q442 1796 502 1852T661 1909Q721 1909 757 1889T819 1841T866
1794T919 1773Q961 1773 984 1803T1027 1885L1151 1838Q1131 1738 1072 1687T921 1636Z" />
<glyph unicode="&#xd6;" horiz-adv-x="1576" d="M788 -24Q573 -24 417 66T176 324T91 720Q91 950 175 1116T416 1373T788 1464Q1003 1464 1159 1374T1400 1117T1485 720Q1485 491 1401 324T1160 67T788 -24ZM788 124Q943 124 1055 196T1229 403T1290 720Q1290
904 1229 1037T1056 1243T788 1316Q634 1316 521 1244T347 1038T286 720Q286 537 347 403T521 197T788 124ZM570 1621Q512 1621 471 1662T430 1761Q430 1820 471 1860T570 1901Q629 1901 669 1861T710 1761Q710 1703 670 1662T570 1621ZM1006 1621Q948 1621 907
1662T866 1761Q866 1820 907 1860T1006 1901Q1065 1901 1105 1861T1146 1761Q1146 1703 1106 1662T1006 1621Z" />
<glyph unicode="&#xd7;" horiz-adv-x="1300" d="M281 201L171 311L540 680L171 1049L281 1159L650 790L1019 1159L1129 1049L760 680L1129 311L1019 201L650 570L281 201Z" />
<glyph unicode="&#xd8;" horiz-adv-x="1576" d="M788 -24Q573 -24 417 66T176 324T91 720Q91 950 175 1116T416 1373T788 1464Q1003 1464 1159 1374T1400 1117T1485 720Q1485 491 1401 324T1160 67T788 -24ZM788 124Q943 124 1055 196T1229 403T1290 720Q1290
904 1229 1037T1056 1243T788 1316Q634 1316 521 1244T347 1038T286 720Q286 537 347 403T521 197T788 124ZM148 -30L42 76L1429 1471L1535 1365L148 -30Z" />
<glyph unicode="&#xd9;" horiz-adv-x="1378" d="M689 -24Q521 -24 398 39T208 219T140 494V1440H320V510Q320 332 419 228T689 124Q859 124 958 228T1058 510V1440H1238V494Q1238 336 1171 220T981 40T689 -24ZM642 1556L422 1860L574 1950L756 1623L642 1556Z" />
<glyph unicode="&#xda;" horiz-adv-x="1378" d="M689 -24Q521 -24 398 39T208 219T140 494V1440H320V510Q320 332 419 228T689 124Q859 124 958 228T1058 510V1440H1238V494Q1238 336 1171 220T981 40T689 -24ZM746 1555L632 1622L814 1949L966 1859L746 1555Z" />
<glyph unicode="&#xdb;" horiz-adv-x="1378" d="M689 -24Q521 -24 398 39T208 219T140 494V1440H320V510Q320 332 419 228T689 124Q859 124 958 228T1058 510V1440H1238V494Q1238 336 1171 220T981 40T689 -24ZM517 1593L380 1660L584 1947H794L998 1660L861 1593L689
1846L517 1593Z" />
<glyph unicode="&#xdc;" horiz-adv-x="1378" d="M689 -24Q521 -24 398 39T208 219T140 494V1440H320V510Q320 332 419 228T689 124Q859 124 958 228T1058 510V1440H1238V494Q1238 336 1171 220T981 40T689 -24ZM471 1621Q413 1621 372 1662T331 1761Q331 1820
372 1860T471 1901Q530 1901 570 1861T611 1761Q611 1703 571 1662T471 1621ZM907 1621Q849 1621 808 1662T767 1761Q767 1820 808 1860T907 1901Q966 1901 1006 1861T1047 1761Q1047 1703 1007 1662T907 1621Z" />
<glyph unicode="&#xdd;" horiz-adv-x="1276" d="M547 0V596L44 1440H234L666 708H612L1042 1440H1232L727 596V0H547ZM695 1555L581 1622L763 1949L915 1859L695 1555Z" />
<glyph unicode="&#xde;" horiz-adv-x="1259" d="M164 0V1440H344V1122H683Q934 1122 1060 1019T1186 721Q1186 530 1061 425T680 320H344V0H164ZM344 468H683Q839 468 920 535T1002 718Q1002 822 929 898T683 974H344V468Z" />
<glyph unicode="&#xdf;" horiz-adv-x="1229" d="M637 -24Q567 -24 508 -12T401 28V211Q490 116 638 116Q777 116 869 201T961 434Q961 500 936 571T847 691T663 740H454V892H644Q773 892 843 963T913 1131Q913 1192 883 1250T790 1346T627 1384Q463 1384 386 1272T309
940V0H141V1005Q141 1137 198 1255T367 1449T639 1524Q763 1524 865 1475T1028 1338T1089 1139Q1089 1064 1058 1001T966 893T810 826Q973 794 1059 690T1145 429Q1145 278 1072 177T882 26T637 -24Z" />
<glyph unicode="&#xe0;" horiz-adv-x="1129" d="M440 -24Q332 -24 253 17T130 131T87 294Q87 391 144 473T320 604T627 654H807L789 636V695Q789 825 737 894T563 964Q448 964 386 905T320 745L131 788Q140 875 197 946T351 1061T575 1104Q706 1104 788 1055T910
912T949 688V195Q949 162 958 151T999 140H1060V0H953Q885 0 839 42T793 150V226H818Q802 184 772 141T696 60T587 -1T440 -24ZM478 116Q561 116 632 157T746 285T790 513V522H621Q488 522 412 487T303 401T271 298Q271 247 294 206T363 141T478 116ZM778 1213L558
1517L710 1607L892 1280L778 1213Z" />
<glyph unicode="&#xe1;" horiz-adv-x="1129" d="M440 -24Q332 -24 253 17T130 131T87 294Q87 391 144 473T320 604T627 654H807L789 636V695Q789 825 737 894T563 964Q448 964 386 905T320 745L131 788Q140 875 197 946T351 1061T575 1104Q706 1104 788 1055T910
912T949 688V195Q949 162 958 151T999 140H1060V0H953Q885 0 839 42T793 150V226H818Q802 184 772 141T696 60T587 -1T440 -24ZM478 116Q561 116 632 157T746 285T790 513V522H621Q488 522 412 487T303 401T271 298Q271 247 294 206T363 141T478 116ZM581 1213L467
1280L649 1607L801 1517L581 1213Z" />
<glyph unicode="&#xe2;" horiz-adv-x="1129" d="M440 -24Q332 -24 253 17T130 131T87 294Q87 391 144 473T320 604T627 654H807L789 636V695Q789 825 737 894T563 964Q448 964 386 905T320 745L131 788Q140 875 197 946T351 1061T575 1104Q706 1104 788 1055T910
912T949 688V195Q949 162 958 151T999 140H1060V0H953Q885 0 839 42T793 150V226H818Q802 184 772 141T696 60T587 -1T440 -24ZM478 116Q561 116 632 157T746 285T790 513V522H621Q488 522 412 487T303 401T271 298Q271 247 294 206T363 141T478 116ZM385 1233L248
1300L452 1587H662L866 1300L729 1233L557 1486L385 1233Z" />
<glyph unicode="&#xe3;" horiz-adv-x="1129" d="M440 -24Q332 -24 253 17T130 131T87 294Q87 391 144 473T320 604T627 654H807L789 636V695Q789 825 737 894T563 964Q448 964 386 905T320 745L131 788Q140 875 197 946T351 1061T575 1104Q706 1104 788 1055T910
912T949 688V195Q949 162 958 151T999 140H1060V0H953Q885 0 839 42T793 150V226H818Q802 184 772 141T696 60T587 -1T440 -24ZM478 116Q561 116 632 157T746 285T790 513V522H621Q488 522 412 487T303 401T271 298Q271 247 294 206T363 141T478 116ZM690 1276Q633
1276 597 1296T535 1343T485 1390T428 1410Q383 1410 360 1376T318 1281L194 1326Q211 1436 271 1492T430 1549Q490 1549 526 1529T588 1481T635 1434T688 1413Q730 1413 753 1443T796 1525L920 1478Q900 1378 841 1327T690 1276Z" />
<glyph unicode="&#xe4;" horiz-adv-x="1129" d="M440 -24Q332 -24 253 17T130 131T87 294Q87 391 144 473T320 604T627 654H807L789 636V695Q789 825 737 894T563 964Q448 964 386 905T320 745L131 788Q140 875 197 946T351 1061T575 1104Q706 1104 788 1055T910
912T949 688V195Q949 162 958 151T999 140H1060V0H953Q885 0 839 42T793 150V226H818Q802 184 772 141T696 60T587 -1T440 -24ZM478 116Q561 116 632 157T746 285T790 513V522H621Q488 522 412 487T303 401T271 298Q271 247 294 206T363 141T478 116ZM339 1261Q281
1261 240 1302T199 1401Q199 1460 240 1500T339 1541Q398 1541 438 1501T479 1401Q479 1343 439 1302T339 1261ZM775 1261Q717 1261 676 1302T635 1401Q635 1460 676 1500T775 1541Q834 1541 874 1501T915 1401Q915 1343 875 1302T775 1261Z" />
<glyph unicode="&#xe5;" horiz-adv-x="1129" d="M440 -24Q332 -24 253 17T130 131T87 294Q87 391 144 473T320 604T627 654H807L789 636V695Q789 825 737 894T563 964Q448 964 386 905T320 745L131 788Q140 875 197 946T351 1061T575 1104Q706 1104 788 1055T910
912T949 688V195Q949 162 958 151T999 140H1060V0H953Q885 0 839 42T793 150V226H818Q802 184 772 141T696 60T587 -1T440 -24ZM478 116Q561 116 632 157T746 285T790 513V522H621Q488 522 412 487T303 401T271 298Q271 247 294 206T363 141T478 116ZM557 1177Q458
1177 397 1239T335 1402Q335 1502 396 1563T557 1625Q657 1625 718 1564T779 1402Q779 1302 718 1240T557 1177ZM557 1288Q657 1288 657 1402Q657 1455 631 1484T557 1514Q511 1514 484 1484T457 1401Q457 1348 484 1318T557 1288Z" />
<glyph unicode="&#xe6;" horiz-adv-x="1818" d="M459 -24Q376 -24 308 -1T192 66T117 167T91 293Q91 390 145 471T315 601T611 650H809V695Q809 826 747 895T554 964Q441 964 378 905T310 745L121 788Q131 875 188 946T342 1061T564 1104Q661 1104 732 1077T851
994T926 858L878 859Q911 919 951 964T1038 1041T1142 1088T1265 1104Q1343 1104 1424 1077T1573 983T1684 802T1726 510H892L968 581Q963 434 996 330T1098 171T1264 116Q1365 116 1433 171T1537 330L1702 274Q1665 182 1603 115T1456 12T1267 -24Q1169 -24 1088
11T949 110T858 256L898 246Q867 180 809 118T665 16T459 -24ZM497 116Q582 116 653 158T767 290T810 523V526L822 518H615Q485 518 411 484T306 398T275 297Q275 222 331 169T497 116ZM971 638H1528Q1513 815 1436 889T1254 964Q1135 964 1062 880T971 638Z" />
<glyph unicode="&#xe7;" horiz-adv-x="1129" d="M594 -24Q442 -24 331 45T160 240T100 540Q100 713 160 839T331 1035T594 1104Q710 1104 801 1062T956 940T1050 748L879 703Q851 829 779 896T594 964Q445 964 365 854T284 540Q284 336 364 226T594 116Q705 116
777 181T878 371L1048 323Q1024 241 982 177T883 68T753 0T594 -24ZM573 -414Q522 -414 462 -401T353 -353L392 -251Q420 -268 457 -283T549 -299Q583 -299 620 -287T657 -235Q657 -199 615 -179T469 -155V-98L525 42H647V20L595 -102L560 -68Q685 -78 738 -127T791
-245Q791 -311 742 -362T573 -414Z" />
<glyph unicode="&#xe8;" horiz-adv-x="1174" d="M601 -24Q447 -24 335 45T161 240T100 539Q100 712 161 839T333 1035T594 1104Q680 1104 766 1077T924 982T1039 797T1083 500H208V636H937L889 573Q884 715 843 801T737 925T591 964Q496 964 427 915T321 770T284
538Q284 336 366 226T601 116Q710 116 784 171T894 330L1059 274Q1020 180 955 114T801 12T601 -24ZM573 1213L353 1517L505 1607L687 1280L573 1213Z" />
<glyph unicode="&#xe9;" horiz-adv-x="1174" d="M601 -24Q447 -24 335 45T161 240T100 539Q100 712 161 839T333 1035T594 1104Q680 1104 766 1077T924 982T1039 797T1083 500H208V636H937L889 573Q884 715 843 801T737 925T591 964Q496 964 427 915T321 770T284
538Q284 336 366 226T601 116Q710 116 784 171T894 330L1059 274Q1020 180 955 114T801 12T601 -24ZM632 1213L518 1280L700 1607L852 1517L632 1213Z" />
<glyph unicode="&#xea;" horiz-adv-x="1174" d="M601 -24Q447 -24 335 45T161 240T100 539Q100 712 161 839T333 1035T594 1104Q680 1104 766 1077T924 982T1039 797T1083 500H208V636H937L889 573Q884 715 843 801T737 925T591 964Q496 964 427 915T321 770T284
538Q284 336 366 226T601 116Q710 116 784 171T894 330L1059 274Q1020 180 955 114T801 12T601 -24ZM436 1233L299 1300L503 1587H713L917 1300L780 1233L608 1486L436 1233Z" />
<glyph unicode="&#xeb;" horiz-adv-x="1174" d="M601 -24Q447 -24 335 45T161 240T100 539Q100 712 161 839T333 1035T594 1104Q680 1104 766 1077T924 982T1039 797T1083 500H208V636H937L889 573Q884 715 843 801T737 925T591 964Q496 964 427 915T321 770T284
538Q284 336 366 226T601 116Q710 116 784 171T894 330L1059 274Q1020 180 955 114T801 12T601 -24ZM646 1261Q588 1261 547 1302T506 1401Q506 1460 547 1500T646 1541Q705 1541 745 1501T786 1401Q786 1343 746 1302T646 1261ZM826 1261Q768 1261 727 1302T686
1401Q686 1460 727 1500T826 1541Q885 1541 925 1501T966 1401Q966 1343 926 1302T826 1261Z" />
<glyph unicode="&#xec;" horiz-adv-x="496" d="M164 0V1080H332V0H164ZM213 1213L-7 1517L145 1607L327 1280L213 1213Z" />
<glyph unicode="&#xed;" horiz-adv-x="496" d="M164 0V1080H332V0H164ZM272 1213L158 1280L340 1607L492 1517L272 1213Z" />
<glyph unicode="&#xee;" horiz-adv-x="496" d="M164 0V1080H332V0H164ZM76 1233L-61 1300L143 1587H353L557 1300L420 1233L248 1486L76 1233Z" />
<glyph unicode="&#xef;" horiz-adv-x="496" d="M164 0V1080H332V0H164ZM72 1268Q17 1268 -22 1306T-61 1401Q-61 1457 -22 1495T72 1534Q128 1534 166 1496T205 1401Q205 1345 167 1307T72 1268ZM425 1268Q370 1268 331 1306T292 1401Q292 1457 331 1495T425 1534Q481
1534 519 1496T558 1401Q558 1345 520 1307T425 1268Z" />
<glyph unicode="&#xf0;" horiz-adv-x="1175" d="M589 -23Q435 -23 320 46T142 236T78 517Q78 678 141 800T317 991T573 1060Q662 1060 730 1028T846 945T919 835L894 839Q857 956 795 1047T649 1210T466 1336T257 1437L309 1538Q422 1498 534 1438T746 1296T923
1107T1044 866T1088 568Q1088 372 1024 241T848 43T589 -23ZM583 116Q732 116 818 224T904 518Q904 705 818 813T583 921Q435 921 349 813T262 518Q262 333 348 225T583 116ZM328 1088L264 1189L820 1539L884 1438L328 1088Z" />
<glyph unicode="&#xf1;" horiz-adv-x="1190" d="M163 0V1080H321V836L314 880Q357 973 450 1038T676 1104Q791 1104 874 1053T1002 908T1047 680V0H879V667Q879 800 825 882T645 964Q510 964 421 862T331 565V0H163ZM768 1276Q711 1276 675 1296T613 1343T563
1390T506 1410Q461 1410 438 1376T396 1281L272 1326Q289 1436 349 1492T508 1549Q568 1549 604 1529T666 1481T713 1434T766 1413Q808 1413 831 1443T874 1525L998 1478Q978 1378 919 1327T768 1276Z" />
<glyph unicode="&#xf2;" horiz-adv-x="1222" d="M611 -24Q459 -24 343 47T162 246T97 540Q97 707 162 834T343 1032T611 1104Q763 1104 879 1033T1060 834T1125 540Q1125 373 1060 246T879 48T611 -24ZM611 116Q764 116 852 230T941 540Q941 737 853 850T611 964Q458
964 370 851T281 540Q281 344 369 230T611 116ZM576 1213L356 1517L508 1607L690 1280L576 1213Z" />
<glyph unicode="&#xf3;" horiz-adv-x="1222" d="M611 -24Q459 -24 343 47T162 246T97 540Q97 707 162 834T343 1032T611 1104Q763 1104 879 1033T1060 834T1125 540Q1125 373 1060 246T879 48T611 -24ZM611 116Q764 116 852 230T941 540Q941 737 853 850T611 964Q458
964 370 851T281 540Q281 344 369 230T611 116ZM635 1213L521 1280L703 1607L855 1517L635 1213Z" />
<glyph unicode="&#xf4;" horiz-adv-x="1222" d="M611 -24Q459 -24 343 47T162 246T97 540Q97 707 162 834T343 1032T611 1104Q763 1104 879 1033T1060 834T1125 540Q1125 373 1060 246T879 48T611 -24ZM611 116Q764 116 852 230T941 540Q941 737 853 850T611 964Q458
964 370 851T281 540Q281 344 369 230T611 116ZM439 1233L302 1300L506 1587H716L920 1300L783 1233L611 1486L439 1233Z" />
<glyph unicode="&#xf5;" horiz-adv-x="1222" d="M611 -24Q459 -24 343 47T162 246T97 540Q97 707 162 834T343 1032T611 1104Q763 1104 879 1033T1060 834T1125 540Q1125 373 1060 246T879 48T611 -24ZM611 116Q764 116 852 230T941 540Q941 737 853 850T611 964Q458
964 370 851T281 540Q281 344 369 230T611 116ZM744 1276Q687 1276 651 1296T589 1343T539 1390T482 1410Q437 1410 414 1376T372 1281L248 1326Q265 1436 325 1492T484 1549Q544 1549 580 1529T642 1481T689 1434T742 1413Q784 1413 807 1443T850 1525L974 1478Q954
1378 895 1327T744 1276Z" />
<glyph unicode="&#xf6;" horiz-adv-x="1222" d="M611 -24Q459 -24 343 47T162 246T97 540Q97 707 162 834T343 1032T611 1104Q763 1104 879 1033T1060 834T1125 540Q1125 373 1060 246T879 48T611 -24ZM611 116Q764 116 852 230T941 540Q941 737 853 850T611 964Q458
964 370 851T281 540Q281 344 369 230T611 116ZM649 1261Q591 1261 550 1302T509 1401Q509 1460 550 1500T649 1541Q708 1541 748 1501T789 1401Q789 1343 749 1302T649 1261ZM829 1261Q771 1261 730 1302T689 1401Q689 1460 730 1500T829 1541Q888 1541 928 1501T969
1401Q969 1343 929 1302T829 1261Z" />
<glyph unicode="&#xf7;" horiz-adv-x="1300" d="M650 154Q586 154 542 198T498 306Q498 370 542 414T650 458Q714 458 758 414T802 306Q802 242 758 198T650 154ZM650 902Q586 902 542 946T498 1054Q498 1118 542 1162T650 1206Q714 1206 758 1162T802 1054Q802
990 758 946T650 902ZM140 602V758H1160V602H140Z" />
<glyph unicode="&#xf8;" horiz-adv-x="1222" d="M611 -24Q459 -24 343 47T162 246T97 540Q97 707 162 834T343 1032T611 1104Q763 1104 879 1033T1060 834T1125 540Q1125 373 1060 246T879 48T611 -24ZM611 116Q764 116 852 230T941 540Q941 737 853 850T611 964Q458
964 370 851T281 540Q281 344 369 230T611 116ZM120 -39L35 45L1103 1119L1188 1035L120 -39Z" />
<glyph unicode="&#xf9;" horiz-adv-x="1190" d="M512 -24Q399 -24 316 27T188 173T143 400V1080H311V413Q311 281 361 199T541 116Q638 116 709 166T819 316T859 566V1080H1027V0H869V254L876 210Q834 110 741 43T512 -24ZM811 1213L591 1517L743 1607L925 1280L811
1213Z" />
<glyph unicode="&#xfa;" horiz-adv-x="1190" d="M512 -24Q399 -24 316 27T188 173T143 400V1080H311V413Q311 281 361 199T541 116Q638 116 709 166T819 316T859 566V1080H1027V0H869V254L876 210Q834 110 741 43T512 -24ZM614 1213L500 1280L682 1607L834 1517L614
1213Z" />
<glyph unicode="&#xfb;" horiz-adv-x="1190" d="M512 -24Q399 -24 316 27T188 173T143 400V1080H311V413Q311 281 361 199T541 116Q638 116 709 166T819 316T859 566V1080H1027V0H869V254L876 210Q834 110 741 43T512 -24ZM418 1233L281 1300L485 1587H695L899
1300L762 1233L590 1486L418 1233Z" />
<glyph unicode="&#xfc;" horiz-adv-x="1190" d="M512 -24Q399 -24 316 27T188 173T143 400V1080H311V413Q311 281 361 199T541 116Q638 116 709 166T819 316T859 566V1080H1027V0H869V254L876 210Q834 110 741 43T512 -24ZM372 1261Q314 1261 273 1302T232 1401Q232
1460 273 1500T372 1541Q431 1541 471 1501T512 1401Q512 1343 472 1302T372 1261ZM808 1261Q750 1261 709 1302T668 1401Q668 1460 709 1500T808 1541Q867 1541 907 1501T948 1401Q948 1343 908 1302T808 1261Z" />
<glyph unicode="&#xfd;" horiz-adv-x="1122" d="M211 -390V-250H375Q393 -250 403 -239T422 -202L500 21L483 -56L49 1080H237L581 85L544 94L887 1080H1073L558 -269Q537 -324 487 -357T383 -390H211ZM585 1213L471 1280L653 1607L805 1517L585 1213Z" />
<glyph unicode="&#xfe;" horiz-adv-x="1199" d="M164 -390V1500H328V855L317 871Q361 989 463 1046T680 1104Q812 1104 912 1035T1068 839T1124 539Q1124 366 1068 240T911 45T680 -24Q574 -24 470 29T313 208L328 216V-390H164ZM634 116Q768 116 854 226T940
543Q940 743 857 853T636 964Q552 964 482 920T369 783T327 543Q327 326 417 221T634 116Z" />
<glyph unicode="&#xff;" horiz-adv-x="1122" d="M211 -390V-250H375Q393 -250 403 -239T422 -202L500 21L483 -56L49 1080H237L581 85L544 94L887 1080H1073L558 -269Q537 -324 487 -357T383 -390H211ZM343 1261Q285 1261 244 1302T203 1401Q203 1460 244 1500T343
1541Q402 1541 442 1501T483 1401Q483 1343 443 1302T343 1261ZM779 1261Q721 1261 680 1302T639 1401Q639 1460 680 1500T779 1541Q838 1541 878 1501T919 1401Q919 1343 879 1302T779 1261Z" />
<glyph unicode="&#x2013;" horiz-adv-x="1024" d="M120 552V708H904V552H120Z" />
<glyph unicode="&#x2014;" horiz-adv-x="2048" d="M120 552V708H1928V552H120Z" />
<glyph unicode="&#x2018;" horiz-adv-x="543" d="M376 1464L436 1378L403 1354Q348 1314 321 1274T293 1180V1133L269 1169Q331 1169 374 1127T418 1021Q418 957 374 913T268 869Q233 869 196 887T135 946T110 1059Q110 1154 162 1251T323 1426L376 1464Z" />
<glyph unicode="&#x2019;" horiz-adv-x="543" d="M167 869L107 955L140 979Q196 1020 223 1060T250 1153V1200L274 1164Q212 1164 169 1206T125 1312Q125 1377 169 1420T275 1464Q311 1464 347 1446T408 1387T433 1274Q433 1180 381 1082T220 907L167 869Z" />
<glyph unicode="&#x201a;" horiz-adv-x="543" d="M167 -319L107 -233L140 -209Q196 -168 223 -128T250 -35V12L274 -24Q212 -24 169 18T125 124Q125 189 169 232T275 276Q311 276 347 258T408 199T433 86Q433 -8 381 -106T220 -281L167 -319Z" />
<glyph unicode="&#x201c;" horiz-adv-x="948" d="M376 1464L436 1378L403 1354Q348 1314 321 1274T293 1180V1133L269 1169Q331 1169 374 1127T418 1021Q418 957 374 913T268 869Q233 869 196 887T135 946T110 1059Q110 1154 162 1251T323 1426L376 1464ZM781
1464L841 1378L808 1354Q753 1314 726 1274T698 1180V1133L674 1169Q736 1169 779 1127T823 1021Q823 957 779 913T673 869Q638 869 601 887T540 946T515 1059Q515 1154 567 1251T728 1426L781 1464Z" />
<glyph unicode="&#x201d;" horiz-adv-x="948" d="M167 869L107 955L140 979Q196 1020 223 1060T250 1153V1200L274 1164Q212 1164 169 1206T125 1312Q125 1377 169 1420T275 1464Q311 1464 347 1446T408 1387T433 1274Q433 1180 381 1082T220 907L167 869ZM572
869L512 955L545 979Q601 1020 628 1060T655 1153V1200L679 1164Q617 1164 574 1206T530 1312Q530 1377 574 1420T680 1464Q716 1464 752 1446T813 1387T838 1274Q838 1180 786 1082T625 907L572 869Z" />
<glyph unicode="&#x201e;" horiz-adv-x="948" d="M167 -319L107 -233L140 -209Q196 -168 223 -128T250 -35V12L274 -24Q212 -24 169 18T125 124Q125 189 169 232T275 276Q311 276 347 258T408 199T433 86Q433 -8 381 -106T220 -281L167 -319ZM572 -319L512 -233L545
-209Q601 -168 628 -128T655 -35V12L679 -24Q617 -24 574 18T530 124Q530 189 574 232T680 276Q716 276 752 258T813 199T838 86Q838 -8 786 -106T625 -281L572 -319Z" />
<glyph unicode="&#x2022;" horiz-adv-x="1300" d="M651 362Q539 362 461 439T383 629Q383 741 461 818T651 896Q763 896 840 819T918 629Q918 517 841 440T651 362Z" />
<glyph unicode="&#x2039;" horiz-adv-x="620" d="M375 225L61 629L375 1035H559L241 629L559 225H375Z" />
<glyph unicode="&#x203a;" horiz-adv-x="620" d="M61 225L379 629L61 1035H245L559 629L245 225H61Z" />
</font>
</defs>
</svg>
